<svg width="97" height="86" viewBox="0 0 97 86" fill="none" xmlns="http://www.w3.org/2000/svg">
<path d="M75.9769 23.6986C75.9777 24.5085 75.8386 25.3096 75.5685 26.0495C75.2984 26.7894 74.9035 27.4516 74.4095 27.9929L47.1505 61.2391L44.0271 65.0485L43.6068 65.5611C42.817 66.4037 41.8214 66.9052 40.7742 66.9879C39.7269 67.0705 38.6866 66.7297 37.8143 66.0182L33.8504 61.1837L23.4806 48.6332C22.7926 47.8423 22.3155 46.8174 22.1113 45.6915C21.9071 44.5656 21.9852 43.3908 22.3354 42.3198C22.6857 41.2487 23.292 40.3309 24.0755 39.6856C24.859 39.0402 25.7835 38.6971 26.729 38.7009C27.6971 38.6925 28.6429 39.056 29.4322 39.7398L40.472 53.2046L67.731 19.9583L68.0491 19.5705C68.7222 18.7947 69.5677 18.2779 70.4802 18.0847C71.3926 17.8915 72.3315 18.0304 73.1796 18.4841C74.0277 18.9378 74.7475 19.686 75.249 20.6356C75.7505 21.5851 76.0116 22.6938 75.9996 23.8232L75.9769 23.6986Z" fill="white" fill-opacity="0.76"/>
<path d="M12.5028 4H70.8578C73.8292 3.99847 76.7719 4.58242 79.5176 5.71849C82.2633 6.85456 84.7582 8.52048 86.8599 10.6211C88.9616 12.7217 90.6288 15.2158 91.7663 17.9609C92.9038 20.706 93.4892 23.6484 93.4892 26.6198V59.0237C93.4892 65.0537 91.0938 70.8368 86.8299 75.1007C82.566 79.3646 76.783 81.76 70.7529 81.76H13.5744C12.3171 81.76 11.0721 81.5124 9.91044 81.0312C8.74882 80.55 7.69334 79.8448 6.80428 78.9557C5.91521 78.0667 5.20997 77.0112 4.72881 75.8496C4.24765 74.6879 4 73.4429 4 72.1856V12.5028C4 10.2477 4.89583 8.08501 6.49042 6.49042C8.085 4.89583 10.2477 4 12.5028 4V4Z" stroke="white" stroke-opacity="0.76" stroke-width="7" stroke-miterlimit="10"/>
</svg>
