<svg width="473" height="254" viewBox="0 0 473 254" fill="none" xmlns="http://www.w3.org/2000/svg">
<path d="M88.3188 115.613C89.2877 128.35 87.8492 163.752 86.8282 191.15C86.0828 212.637 85.1214 220.463 80.1726 223.72C78.2795 221.677 76.4013 217.914 74.6275 214.97C72.8536 212.026 71.7133 206.876 66.7048 205.176C65.5942 204.846 64.4013 204.933 63.35 205.42C62.2988 205.907 61.4616 206.761 60.9958 207.822C59.3263 212.339 64.5658 217.37 63.0379 220.656C61.3386 224.286 57.381 224.383 56.3301 229.406C55.6742 232.537 57.9325 235.145 59.7585 236.546C62.3075 238.514 67.2116 239.572 71.132 239.9C87.6778 241.309 98.5817 242.218 105.908 243.403C117.52 245.281 120.606 247.309 126.322 248.874C129.534 249.746 133.03 247.92 134.051 245.587C134.641 243.891 134.777 242.069 134.445 240.304C134.113 238.539 133.324 236.891 132.158 235.525C126.322 228.892 125.934 226.887 125.383 225.173C120.069 208.553 118.981 187.975 117.185 161.889C116.313 149.345 115.239 136.422 115.142 122.708C125.308 143.972 144.768 183.697 147.101 187.945C158.005 207.584 158.676 209.618 162.075 222.453C163.237 226.835 163.386 234.169 163.192 236.256C162.887 239.55 162.03 243.5 162.514 245.103C164.161 250.558 167.321 248.695 169.267 247.726C182.876 240.974 187.378 241.928 200.085 245.103C202.999 245.848 210.438 248.509 213.456 248.65C213.912 248.715 214.377 248.678 214.817 248.541C215.257 248.404 215.661 248.172 216 247.861C216.339 247.549 216.605 247.166 216.779 246.74C216.952 246.313 217.029 245.853 217.004 245.393C216.296 241.123 210.624 236.278 205.727 232.171C197.603 225.367 197.529 224.398 197.529 224.398C196.418 223.25 196.321 217.504 196.314 216.088C196.165 189.301 195.36 125.257 195.293 120.375C195.218 114.927 195.144 104.291 195.144 104.291C194.853 94.9526 195.308 86.2176 197.283 77.7509C198.632 71.9748 203.849 57.5307 214.783 52.4701C216.109 51.8589 215.588 49.8019 214.149 49.7497C201.226 48.2069 187.952 54.0799 175.311 50.3385C172.33 49.4441 168.216 46.1871 164.72 46.8355C161.225 47.4839 159.272 49.459 158.057 52.6191C157.126 55.1854 157.058 57.9855 157.864 60.5939C159.63 65.8111 162.261 68.3004 164.862 73.13C168.171 79.2564 168.588 85.055 168.849 91.0174C169.14 98.5078 168.656 149.636 171.764 184.442C165.25 170.281 143.673 137.294 133.007 105.678C131.763 101.951 132.113 96.5998 133.589 93.0074C134.975 89.5864 137.509 86.2996 140.073 83.6761C145.685 77.8478 150.805 72.3176 152.251 65.3043C152.877 62.2783 150.835 56.7705 145.685 58.5965C144.373 59.0586 139.365 63.7391 138.232 64.559C117.304 80.1657 92.6043 89.3181 88.5051 90.7342C80.4856 93.5067 70.3494 92.7018 61.674 96.0557C58.5091 97.2239 55.647 99.0882 53.2992 101.511C50.9514 103.933 49.1778 106.853 48.1094 110.053C42.4972 127.016 52.8346 136.541 59.0207 140.312C68.5979 146.148 77.3702 144.352 82.3787 139.485C83.7128 138.195 82.5203 134.603 82.2594 133.753C80.7111 128.849 80.7111 123.587 82.2594 118.683C83.4444 114.286 83.0047 110.485 81.1265 111.074C77.4 112.199 78.3689 116.418 75.1119 118.952C71.8549 121.486 65.4229 119.563 62.9857 114.36C61.4206 111.051 63.0826 105.312 67.3607 103.375C70.6922 101.884 76.9006 101.936 80.4856 102.689C86.1201 103.881 88.1175 109.866 88.2591 115.62" fill="#F39204"/>
<path d="M236.732 74.792C231.575 76.9758 229.957 84.7568 224.435 85.7033C220.045 86.4487 216.169 81.5743 216.736 77.1547C217.302 72.735 221.051 69.2917 225.158 67.5625C229.241 65.8609 233.752 65.4702 238.066 66.4446C241.174 67.1899 244.081 68.5687 247.07 69.6867C253.778 72.1984 260.97 73.2567 268.08 74.3001C284.842 76.7596 407.11 79.5173 424.595 80.9706C430.092 81.6046 435.507 82.8111 440.753 84.5705C444.584 85.8151 450.219 88.5057 453.572 89.7876C464.118 93.7974 471.907 93.0446 471.601 92.4633C465.639 81.2166 461.368 76.2827 460.109 63.6199C459.535 57.7916 462.218 46.0902 457.709 42.3488C454.4 48.4752 451.828 52.5371 444.293 54.2737C411.403 61.7268 285.781 52.1496 256.856 51.5533C241.137 51.2328 223.645 51.8142 212.398 62.8C206.77 68.348 203.506 75.8581 203.29 83.7581C203.074 93.4918 208.373 103.643 217.369 107.377C226.365 111.111 238.432 106.632 241.286 97.2929C242.382 93.7229 242.136 89.892 241.882 86.158L241.398 78.9211C241.308 77.6391 241.189 76.2752 240.392 75.2839C239.594 74.2927 237.843 73.9647 237.083 74.9933" fill="#F39204"/>
<path d="M236.024 73.5847C233.148 74.8815 231.344 77.5572 229.518 80.0018C227.871 82.2004 225.53 85.1221 222.4 84.2202C218.853 83.1917 217.384 78.8838 218.532 75.6417C219.896 71.8108 223.801 69.329 227.52 68.1886C232 66.8915 236.784 67.1169 241.122 68.8296C245.594 70.4693 249.924 72.2804 254.612 73.3611C259.99 74.5984 265.442 75.4872 270.935 76.0218C277.739 76.6777 284.589 76.9758 291.416 77.3038C301.694 77.7957 311.971 78.1907 322.257 78.5708C334.003 78.9931 345.749 79.3981 357.495 79.7856C368.555 80.1533 379.613 80.5235 390.668 80.8962C399.061 81.1794 407.453 81.47 415.838 81.8576C418.357 81.9768 420.876 82.0961 423.395 82.2675C428.835 82.7561 434.2 83.8741 439.382 85.5991C443.235 86.8065 446.902 88.5058 450.614 90.0709C454.425 91.7309 458.413 92.9488 462.501 93.7006C465.149 94.2673 467.865 94.4555 470.566 94.2595C471.302 94.267 472.018 94.0195 472.593 93.559C473.8 92.3143 471.997 90.2423 471.393 89.1318C467.838 82.6774 463.94 76.4616 462.375 69.165C461.636 65.7667 461.348 62.2861 461.518 58.8127C461.799 55.4987 461.854 52.1693 461.681 48.8479C461.436 46.1722 460.832 43.2432 458.7 41.3948C458.547 41.2477 458.364 41.1368 458.162 41.0704C457.961 41.0039 457.747 40.9835 457.537 41.0106C457.326 41.0378 457.125 41.1119 456.947 41.2274C456.769 41.3429 456.619 41.4969 456.509 41.678C455.018 44.4357 453.528 47.2827 451.165 49.4292C448.803 51.5757 446.09 52.485 443.168 53.1036C439.906 53.7385 436.612 54.1913 433.3 54.4601C423.805 55.3693 414.243 55.578 404.71 55.6526C392.785 55.742 380.905 55.5259 369.01 55.183C356.34 54.8253 343.714 54.311 331.074 53.7297C319.303 53.1831 307.534 52.5893 295.768 51.9484C286.497 51.4639 277.233 50.9497 267.961 50.5248C258.011 50.0702 247.949 49.5783 238.037 50.7335C230.457 51.613 222.795 53.521 216.363 57.799C209.615 62.2517 204.783 69.0734 202.821 76.9162C200.938 84.3365 202.035 92.1992 205.877 98.8208C209.499 104.917 215.618 109.486 222.818 110C229.227 110.463 236.047 107.765 240.019 102.659C242.241 99.6312 243.454 95.9805 243.485 92.2248C243.533 89.9192 243.453 87.6127 243.246 85.3158C243.082 82.8787 242.993 80.4266 242.74 77.9895C242.553 76.2156 241.994 74.33 240.362 73.3984C239.696 72.9958 238.913 72.8298 238.141 72.9272C237.369 73.0245 236.652 73.3796 236.106 73.935C234.899 75.2616 236.852 77.2441 238.081 75.91C238.588 75.3585 239.281 75.9697 239.572 76.4765C240.094 77.4752 240.034 78.7944 240.109 79.89C240.268 82.2004 240.422 84.5134 240.571 86.8288C240.839 90.8907 241.063 95.2806 239.08 98.9923C236.166 104.485 229.727 107.384 223.682 107.191C216.713 107.004 210.93 102.309 207.74 96.3464C206.024 93.0274 205.019 89.3874 204.788 85.6584C204.557 81.9293 205.106 78.1931 206.398 74.6877C209.081 67.3616 214.514 61.3699 221.543 57.9854C228.251 54.6464 235.831 53.4614 243.224 53.0216C251.989 52.4925 260.806 52.9247 269.571 53.3346C278.641 53.7669 287.712 54.2588 296.775 54.7358C308.103 55.337 319.432 55.9084 330.761 56.45C342.909 57.009 355.058 57.5084 367.214 57.8661C378.751 58.209 390.281 58.44 401.818 58.4028C411.299 58.4028 420.801 58.2015 430.259 57.4562C433.859 57.173 437.459 56.8078 441.022 56.2264C445.784 55.4811 450.48 54.1694 453.908 50.5472C455.899 48.2552 457.585 45.7149 458.924 42.9898L456.688 43.273C458.82 45.1288 458.924 48.4901 458.924 51.0987C458.976 54.4302 458.603 57.7543 458.566 61.0858C458.492 68.3004 460.802 75.433 464.104 81.7682C464.946 83.3929 465.84 84.9804 466.742 86.5754L468.158 89.102C468.644 90.2002 469.222 91.2549 469.887 92.2547C470.245 92.6869 469.887 93.082 470.439 92.0013L470.767 91.323H470.715C470.715 91.2038 471.065 91.2559 470.64 91.323C470.379 91.323 470.185 91.3901 469.716 91.4199C468.473 91.4775 467.227 91.4426 465.989 91.3156C457.672 90.5703 450.502 86.6425 442.818 83.7656C436.81 81.4774 430.515 80.0303 424.11 79.4652C421.763 79.2788 419.415 79.167 417.067 79.0552C408.869 78.6602 400.671 78.377 392.427 78.0938C381.322 77.7062 370.22 77.3336 359.12 76.9758C347.304 76.5783 335.491 76.1734 323.68 75.761C313.179 75.3734 302.677 75.0157 292.183 74.479C285.2 74.1511 278.194 73.8455 271.233 73.1971L269.623 73.0331L268.967 72.9586L268.661 72.9139C268.304 72.8692 268.848 72.9139 268.661 72.9139C264.19 72.2878 259.718 71.6096 255.343 70.596C250.655 69.5153 246.347 67.7116 241.853 66.072C237.539 64.4422 232.846 64.0979 228.34 65.0807C221.424 66.616 212.748 73.1673 215.864 81.2614C217.094 84.4587 220.082 87.3058 223.697 87.1716C226.969 87.0524 229.324 84.7643 231.21 82.3271C233.095 79.89 234.616 77.2516 237.411 75.9995C239.05 75.2542 237.627 72.8543 235.995 73.5847H236.024Z" fill="#F39204"/>
<path d="M272.269 75.5001C272.149 90.7342 272.202 117.096 272.075 132.322C272.075 133.724 272.075 135.252 272.999 136.325C274.81 138.464 278.045 136.377 280.847 136.183C303.02 134.64 300.97 135.706 305.509 142.518C309.147 147.966 308.491 155.979 305.867 153.362C300.218 147.78 291.356 147.542 283.411 147.646C281.175 147.646 278.783 147.795 277.18 149.308C276.302 150.257 275.663 151.402 275.317 152.647C271.128 164.572 271.732 177.548 272.388 190.158L274.08 222.617C274.162 224.107 274.266 225.747 275.108 227.021C276.032 228.415 277.657 229.138 279.081 230.003C282.486 232.144 284.973 235.475 286.057 239.349C268.179 239.963 250.641 244.411 234.631 252.392C231.515 235.548 237.172 229.57 241.107 218.473C244.692 208.344 246.16 197.604 247.614 186.976C249.164 175.655 250.714 164.244 250.118 152.833C246.869 156.649 244.729 158.647 239.96 163.394C238.469 154.115 238.186 141.691 237.12 132.479C238.797 130.839 241.942 135.348 244.29 135.319C248.836 135.266 250.401 129.274 250.453 124.728C250.625 110.418 251.094 84.332 248.471 70.2681" fill="#F39204"/>
<path d="M270.875 75.5001C270.741 91.7553 270.793 108.01 270.726 124.273C270.726 126.062 270.726 127.858 270.726 129.647C270.726 131.436 270.51 133.44 270.964 135.229C271.192 136.259 271.783 137.173 272.629 137.804C273.474 138.434 274.518 138.74 275.57 138.665C277.62 138.546 279.528 137.674 281.578 137.532C285.513 137.264 289.455 136.981 293.398 136.958C294.628 136.958 295.858 136.958 297.08 137.1C297.294 137.1 297.51 137.122 297.728 137.167C297.43 137.13 298.034 137.219 298.131 137.242C298.531 137.313 298.927 137.408 299.316 137.525L299.756 137.674C300.099 137.793 299.584 137.555 299.994 137.778C300.255 137.92 300.508 138.069 300.739 138.233C300.971 138.397 300.568 138.046 300.889 138.352L301.179 138.62C301.409 138.854 301.623 139.103 301.82 139.366C301.589 139.082 301.82 139.366 301.902 139.492L302.156 139.85C302.364 140.171 302.573 140.491 302.774 140.812C303.214 141.52 303.646 142.228 304.101 142.921C305.763 145.462 307.298 149.263 306.516 152.259C306.516 152.371 306.449 152.491 306.411 152.595C306.374 152.699 306.411 152.364 306.411 152.654C306.411 152.796 306.471 152.654 306.411 152.699C306.516 152.699 306.694 152.535 306.829 152.505C307.164 152.431 306.516 152.684 307.037 152.505C307.224 152.446 307.157 152.647 306.97 152.446C307.201 152.692 306.62 152.095 306.732 152.2C306.531 152.006 306.322 151.82 306.113 151.641C304.541 150.308 302.764 149.236 300.851 148.466C296.909 146.849 292.556 146.401 288.33 146.282C286.258 146.222 284.156 146.193 282.092 146.282C280.027 146.372 277.62 146.863 276.062 148.518C274.505 150.173 273.826 152.707 273.2 154.883C272.504 157.29 271.967 159.74 271.59 162.217C270.811 167.351 270.457 172.541 270.532 177.734C270.629 188.399 271.456 199.08 272.023 209.73L272.448 217.839C272.582 220.388 272.448 223.109 273.036 225.605C273.573 227.938 275.19 229.332 277.18 230.532C278.982 231.527 280.592 232.834 281.935 234.393C283.225 235.973 284.174 237.802 284.723 239.766L286.072 238C271.973 238.486 258.055 241.328 244.894 246.407C241.182 247.843 237.545 249.45 233.982 251.229L236.032 252.064C234.996 246.384 234.772 240.571 236.263 234.922C237.455 230.45 239.572 226.254 241.316 221.953C243.836 215.483 245.679 208.769 246.816 201.919C248.165 194.429 249.134 186.849 250.088 179.299C251.199 170.527 252.011 161.688 251.579 152.841C251.519 151.723 250.029 150.873 249.194 151.85C246.011 155.576 242.486 158.967 239.028 162.418L241.368 163.029C239.766 152.93 239.743 142.645 238.581 132.472L238.171 133.463C238.059 133.56 238.074 133.522 238.059 133.515C237.947 133.388 238.23 133.515 238.342 133.589C238.77 133.795 239.175 134.044 239.55 134.335C240.408 134.998 241.309 135.603 242.248 136.146C243.303 136.642 244.489 136.79 245.634 136.569C246.779 136.348 247.825 135.769 248.62 134.916C252.138 131.406 251.899 125.764 251.959 121.195C252.093 109.896 252.19 98.5823 251.639 87.2909C251.441 81.4646 250.853 75.6581 249.88 69.9103C249.552 68.1439 246.854 68.8967 247.182 70.6556C248.411 77.3112 248.747 84.1457 248.993 90.8982C249.276 98.5153 249.291 106.132 249.239 113.749C249.239 116.962 249.172 120.174 249.134 123.394C249.134 126.338 248.978 129.513 247.331 132.077C247.038 132.619 246.609 133.076 246.086 133.402C245.564 133.729 244.965 133.914 244.349 133.94C243.403 133.895 242.166 132.785 241.309 132.166C240.206 131.376 238.849 130.467 237.418 130.817C237.065 130.885 236.734 131.041 236.457 131.27C236.179 131.499 235.964 131.794 235.831 132.129C235.764 132.626 235.79 133.131 235.905 133.619C235.965 134.193 236.024 134.767 236.077 135.334C236.986 144.814 237.18 154.376 238.67 163.797C238.842 164.87 240.325 165.094 241.01 164.415C244.476 160.965 247.987 157.574 251.169 153.847L248.784 152.863C249.068 160.786 248.686 168.719 247.644 176.579C246.734 184.218 245.721 191.88 244.431 199.475C243.346 206.533 241.545 213.463 239.058 220.157C237.351 224.532 235.175 228.728 233.841 233.252C231.955 239.654 232.156 246.273 233.349 252.794C233.409 252.998 233.514 253.186 233.657 253.343C233.799 253.501 233.976 253.624 234.173 253.705C234.37 253.785 234.582 253.82 234.794 253.807C235.006 253.793 235.213 253.733 235.398 253.629C247.692 247.498 260.925 243.468 274.549 241.704C278.37 241.207 282.214 240.897 286.079 240.772C286.293 240.768 286.504 240.715 286.694 240.618C286.885 240.521 287.051 240.381 287.18 240.211C287.309 240.04 287.398 239.842 287.44 239.632C287.481 239.422 287.475 239.206 287.421 238.999C286.215 234.776 283.488 231.149 279.766 228.818C277.985 227.7 276.144 226.947 275.667 224.689C275.484 223.515 275.389 222.329 275.384 221.141L275.175 217.079C274.609 206.265 273.961 195.465 273.498 184.636C273.066 174.485 273.074 164.095 276.211 154.324C276.882 152.222 277.538 150.046 279.893 149.397C281.816 148.868 283.963 149.025 285.945 149.025C290.067 149.025 294.255 149.241 298.22 150.515C300.141 151.096 301.945 152.009 303.549 153.213C304.667 154.078 305.785 155.673 307.38 155.211C310.272 154.399 309.467 149.375 309.005 147.333C308.357 144.426 306.814 142.056 305.278 139.574C304.618 138.38 303.781 137.292 302.797 136.347C299.681 133.686 294.74 134.111 290.946 134.238C288.956 134.298 286.959 134.409 284.984 134.536C282.655 134.569 280.335 134.837 278.06 135.334C276.651 135.706 274.385 136.66 273.715 134.775C273.474 133.841 273.396 132.873 273.484 131.913V129.438C273.58 113.153 273.536 96.8607 273.618 80.5757C273.618 78.8913 273.63 77.2069 273.655 75.5225C273.655 73.7188 270.875 73.7188 270.86 75.5225L270.875 75.5001Z" fill="#F39204"/>
<path d="M363.718 78.608C362.973 100.692 361.251 183.54 360.304 205.616C359.991 212.95 358.978 221.484 352.702 225.285C349.584 221.71 347.014 217.691 345.078 213.36C343.952 210.833 342.276 208.94 340.345 206.652C337.491 203.313 337.088 202.926 335.717 207.114C334.226 211.668 338.534 216.058 337.252 220.634C336.149 224.592 330.038 225.568 330.447 230.562C330.596 232.014 331.247 233.369 332.288 234.392C334.576 236.695 337.804 237.336 340.904 237.806C358.933 240.519 377.775 239.423 394.857 245.811C398.256 247.085 402.556 248.486 405.045 245.676C405.592 245.011 405.976 244.227 406.164 243.387C406.353 242.547 406.343 241.675 406.134 240.839C405.47 237.702 403.212 235.488 401.356 233.043C395.096 224.785 393.523 214.001 392.33 203.708C388.909 174.283 386.83 108.763 386.286 79.1372" fill="#F39204"/>
<path d="M362.324 78.6081C362.086 85.9419 361.907 93.2832 361.721 100.625C361.452 111.238 361.191 121.856 360.938 132.479C360.665 143.778 360.382 155.079 360.088 166.383C359.842 175.886 359.596 185.381 359.291 194.884C359.187 198.156 359.082 201.42 358.948 204.692C358.724 210.244 358.456 216.55 355.08 221.23C354.247 222.372 353.199 223.339 351.994 224.077L353.686 224.294C351.6 221.88 349.764 219.26 348.208 216.475C346.718 213.785 345.629 210.982 343.736 208.53C342.782 207.315 341.769 206.145 340.755 204.983C340.162 204.202 339.445 203.524 338.631 202.978C336.395 201.748 335.255 204.215 334.658 205.892C333.704 208.575 334.032 211.035 334.889 213.695C335.568 215.819 336.708 218.413 335.791 220.634C335.106 222.289 333.295 223.347 331.998 224.48C330.388 225.725 329.333 227.554 329.061 229.57C328.8 232.477 330.552 235.048 332.847 236.643C335.143 238.238 338.109 238.79 340.882 239.207C347.358 240.161 353.895 240.698 360.424 241.167C366.953 241.637 373.4 242.203 379.802 243.314C382.96 243.849 386.087 244.553 389.17 245.423C392.002 246.228 394.715 247.42 397.548 248.181C399.962 248.829 402.832 249.112 405.001 247.577C407.415 245.855 408.123 242.814 407.386 240.034C406.648 237.254 404.732 235.056 402.973 232.85C401.204 230.6 399.731 228.133 398.591 225.508C396.213 220.12 395.118 214.21 394.313 208.411C393.746 204.304 393.322 200.175 392.942 196.054C392.144 187.378 391.563 178.681 391.056 169.968C390.46 159.857 389.963 149.735 389.565 139.604C389.148 129.602 388.785 119.6 388.477 109.598C388.219 101.106 387.993 92.6149 387.799 84.1234C387.799 82.4613 387.732 80.7993 387.702 79.1298C387.702 77.3336 384.877 77.3336 384.907 79.1298C385.051 86.7071 385.233 94.2819 385.451 101.854C385.72 111.215 386.033 120.576 386.39 129.937C386.763 139.805 387.2 149.668 387.702 159.526C388.172 168.619 388.701 177.712 389.394 186.797C390.013 194.995 390.698 203.194 391.95 211.295C392.697 216.971 394.253 222.51 396.571 227.744C397.78 230.269 399.28 232.643 401.043 234.817C402.616 236.8 404.531 238.879 404.896 241.525C405.001 242.074 404.98 242.64 404.836 243.18C404.692 243.72 404.429 244.22 404.065 244.645C403.702 245.069 403.247 245.406 402.736 245.631C402.224 245.856 401.669 245.964 401.11 245.945C398.591 245.945 396.184 244.79 393.843 243.977C387.898 242.001 381.767 240.63 375.546 239.885C369.353 239.058 363.122 238.618 356.913 238.126C353.738 237.873 350.563 237.605 347.396 237.262C344.435 237.005 341.491 236.579 338.579 235.987C336.112 235.421 333.362 234.325 332.244 231.829C331.446 229.988 332.109 228.326 333.466 227.014C334.822 225.702 336.335 224.778 337.468 223.325C338.959 221.432 339.175 219.114 338.75 216.803C338.303 214.359 336.976 212.048 336.872 209.536C336.869 208.298 337.147 207.075 337.684 205.959L337.878 205.571C337.918 205.488 337.965 205.408 338.02 205.333C338.057 205.333 337.833 205.445 337.692 205.467C337.327 205.527 337.297 205.303 337.453 205.527C337.61 205.75 337.96 206.004 338.199 206.227C338.668 206.742 339.123 207.271 339.57 207.8C340.502 208.888 341.448 209.961 342.268 211.124C344.012 213.576 345.018 216.475 346.561 219.061C348.086 221.621 349.831 224.043 351.778 226.298C351.997 226.516 352.281 226.655 352.586 226.696C352.892 226.736 353.202 226.675 353.47 226.522C359.209 222.967 360.923 216.088 361.497 209.827C361.855 206.101 361.907 202.337 362.034 198.595C362.339 189.547 362.585 180.499 362.824 171.444C363.122 160.105 363.407 148.769 363.681 137.435L364.486 104.493C364.687 96.5104 364.881 88.5281 365.127 80.5533C365.127 79.9124 365.127 79.2714 365.186 78.6379C365.246 76.8343 362.451 76.8417 362.391 78.6379L362.324 78.6081Z" fill="#F39204"/>
<path d="M127.947 32.0561C125.935 32.8014 125.897 32.2648 123.885 33.0324C113.518 21.7857 102.405 10.3974 88.2965 5.40384C80.0981 2.49714 71.3184 1.95307 62.6728 1.58787C51.9702 1.13571 41.2626 0.924538 30.55 0.95435C29.0341 0.857701 27.5141 1.0629 26.0782 1.55805C24.8459 2.14413 23.7377 2.96138 22.8137 3.9654C17.7233 8.94407 13.6762 14.9513 9.659 20.9212C7.9466 23.2737 6.49938 25.8082 5.34367 28.4786C4.05429 31.7952 3.65182 35.41 3.26425 38.9726L1.02833 59.3046C0.827146 60.5261 0.827146 61.7723 1.02833 62.9938C1.49042 65.0882 3.07793 66.7204 4.65053 68.0843C10.2815 73.025 16.8815 76.7362 24.0286 78.9807C27.5539 80.0763 31.735 80.6651 34.5598 78.2354C36.5125 76.551 37.31 73.8157 37.787 71.2071C38.5763 66.8843 38.7869 62.4756 38.413 58.0972C38.3828 57.2071 38.1882 56.3303 37.8391 55.5109C37.2376 54.4705 36.3675 53.6107 35.32 53.0216C32.0185 50.8729 28.3463 49.3565 24.4907 48.5498C26.3316 50.7335 28.2619 53.0887 28.6569 55.9581C29.0519 58.8276 27.1663 62.2113 24.3863 62.0771C22.4336 61.9802 20.8386 60.1542 20.3542 58.1568C19.9874 56.1352 20.1491 54.0531 20.8237 52.1123C22.442 46.4304 25.4225 41.2292 29.5066 36.9602C35.156 43.9587 45.799 46.1126 49.2349 54.5346C51.7242 60.6238 49.5628 68.3899 53.4533 73.6145C55.3762 76.2007 58.4394 77.5721 61.4803 78.3099C69.9694 80.3521 78.846 78.1534 86.955 74.9337C96.3235 71.2071 105.26 66.0794 112.668 59.0362C120.076 51.9931 125.256 42.2146 127.895 32.0784" fill="#7C4F9A"/>
<path d="M127.724 31.1542C126.389 31.6461 124.988 31.6461 123.654 32.138L124.563 32.3765C113.689 20.5783 101.779 8.28071 85.9192 3.6598C77.1469 1.09594 67.8901 0.835075 58.8197 0.499686C49.25 0.149391 39.6653 -0.0742009 30.0881 0.0226892C28.0311 0.0226892 26.0262 0.298453 24.2971 1.51331C22.6316 2.77992 21.1141 4.22997 19.773 5.83609C16.9051 9.08724 14.2536 12.5231 11.8355 16.1214C9.38343 19.6765 6.61834 23.254 4.90413 27.2339C3.10794 31.348 2.72037 35.8422 2.24337 40.2619L0.648415 54.6836C0.279994 56.9923 0.063393 59.3227 0 61.6597C0.0917744 63.6015 0.864982 65.4487 2.18375 66.8769C3.50467 68.3099 4.96246 69.6104 6.53635 70.7599C11.4501 74.6209 16.9985 77.5969 22.9331 79.5546C26.3317 80.6874 30.3117 81.5893 33.6954 79.9272C37.0791 78.2652 38.279 74.2331 38.8678 70.7227C39.6855 66.2453 39.8312 61.671 39.3001 57.1506C39.1782 56.2061 38.8474 55.3006 38.3317 54.5C37.816 53.6994 37.1284 53.0238 36.3189 52.5222C34.5552 51.3034 32.6663 50.2765 30.6844 49.459C28.7769 48.6562 26.798 48.0349 24.774 47.6032C24.5774 47.5561 24.3707 47.5737 24.1849 47.6535C23.9991 47.7333 23.8439 47.8709 23.7426 48.0459C23.6413 48.2209 23.5991 48.424 23.6225 48.6249C23.6459 48.8258 23.7334 49.0138 23.8722 49.1609C25.6312 51.2403 27.7926 53.7445 27.8149 56.614C27.8149 58.5369 26.5255 61.4436 24.1704 61.0411C21.0475 60.5045 20.8686 56.3158 21.3456 53.9458C21.9835 51.0283 23.0245 48.2138 24.4387 45.5834C25.9827 42.6691 27.9297 39.987 30.2223 37.6161H28.9031C31.4669 40.7538 34.9401 42.9301 38.3238 45.0691C41.5286 47.1113 44.9496 49.2354 47.1184 52.4477C49.6972 56.2562 49.6152 60.8399 50.0102 65.2447C50.4052 69.6494 51.6052 74.0766 55.5329 76.7746C59.6247 79.5769 65.1623 80.203 69.9919 79.9794C75.4834 79.6084 80.8816 78.3708 85.9862 76.3125C95.6305 72.6605 104.82 67.5327 112.46 60.5567C120.658 53.1036 126.061 42.9674 128.856 32.302C128.913 32.0667 128.876 31.8187 128.752 31.6104C128.629 31.4021 128.43 31.25 128.197 31.186C127.963 31.1221 127.714 31.1515 127.502 31.268C127.29 31.3845 127.131 31.5789 127.06 31.8101C124.601 41.1414 120.121 50.1298 113.354 57.0835C106.438 64.2087 97.6429 69.4705 88.5352 73.294C83.731 75.4146 78.6772 76.9172 73.4949 77.7658C68.5088 78.5111 62.8295 78.3844 58.216 76.1411C56.1861 75.2246 54.5111 73.6701 53.4461 71.7139C52.5102 69.6714 51.9787 67.4669 51.8809 65.2223C51.5008 60.9815 51.553 56.5543 49.4736 52.7011C45.2998 44.9573 35.6257 42.863 30.2297 36.2596C30.0531 36.0879 29.8164 35.9919 29.5701 35.9919C29.3238 35.9919 29.0872 36.0879 28.9105 36.2596C26.436 38.8428 24.3475 41.7698 22.7096 44.9499C21.0699 48.1473 19.5644 51.8142 19.296 55.4289C19.065 58.4996 20.496 62.3752 23.9468 62.9193C26.8535 63.3739 29.0521 60.743 29.5589 58.1195C30.3042 54.1321 27.6211 50.7111 25.2063 47.8566L24.3045 49.4143C28.2868 50.2216 32.0628 51.832 35.4022 54.147C36.1732 54.6328 36.7868 55.3318 37.1685 56.1593C37.5004 57.2431 37.6589 58.3725 37.6381 59.5058C37.7611 61.6386 37.7461 63.7771 37.5934 65.908C37.4497 68.0267 37.1482 70.1319 36.6915 72.2058C36.3888 73.9556 35.6506 75.6011 34.545 76.9907C32.093 79.7111 28.0385 79.1446 24.856 78.2279C17.3577 76.0318 10.4699 72.1287 4.7327 66.8247C3.38369 65.5726 2.12413 64.0969 1.90799 62.1889C1.67694 60.0424 2.19866 57.717 2.4297 55.5929L3.8756 42.2817C4.33769 38.0185 4.58365 33.6063 5.98483 29.522C7.32638 25.6241 9.90515 22.2329 12.2007 18.8566C14.4771 15.4132 16.93 12.0896 19.5494 8.89932C20.8634 7.31955 22.2616 5.81184 23.7381 4.38275C25.0969 2.92031 26.9633 2.03245 28.9552 1.90087C33.3451 1.65492 37.8095 1.90087 42.2068 1.90087C46.6041 1.90087 51.1878 2.06484 55.682 2.2139C64.253 2.48966 72.9806 2.60145 81.3951 4.39765C88.9902 6.10462 96.141 9.39057 102.383 14.0419C108.606 18.5138 114.107 23.9769 119.376 29.5369C120.673 30.9132 121.962 32.2995 123.244 33.6957C123.361 33.8125 123.507 33.8962 123.667 33.9381C123.826 33.98 123.994 33.9787 124.153 33.9342C125.488 33.4498 126.889 33.4423 128.215 32.9504C129.333 32.5405 128.856 30.7145 127.724 31.1542Z" fill="#511C6C"/>
<path d="M69.5893 4.95661C68.1658 5.26218 62.2108 6.25345 60.7574 6.1491C56.6731 5.84353 50.9268 5.61248 46.8425 5.40379C42.7582 5.19511 41.6253 5.15039 37.5038 5.00878C36.52 4.97152 31.3252 5.00878 30.3637 4.79264C29.6184 4.65103 35.5809 3.52561 35.9461 3.46599C36.8703 3.30202 50.2486 3.55543 54.2658 3.86846C58.283 4.18149 69.0825 4.87462 69.5893 4.95661Z" fill="#9C76B2"/>
<path opacity="0.7" d="M20.9506 74.2107C23.358 74.7175 25.9516 75.0007 28.2025 74.0169C31.0272 72.7872 32.7489 69.7314 33.0991 66.6756C33.4494 63.6199 32.6371 60.5418 31.5638 57.65C30.7509 55.5436 29.8127 53.4879 28.754 51.4937C31.8545 52.6042 35.35 54.6911 36.0729 55.9656C36.9226 57.4562 36.8779 59.6101 36.9449 60.5268C36.9449 60.7877 36.9449 62.5914 36.9449 63.8435C36.9415 64.8518 36.8868 65.8592 36.781 66.862C36.6468 68.2333 36.4903 69.9625 36.2742 71.1326C36.0358 72.3413 35.6607 73.519 35.1562 74.643C34.8043 75.4925 34.2583 76.2478 33.562 76.8483C32.8657 77.4488 32.0384 77.8779 31.1464 78.1012C29.0372 78.6528 26.5777 77.9894 24.4759 77.3559C21.7821 76.4765 19.1565 75.4004 16.6204 74.1362C15.8751 73.7859 15.3534 73.4952 14.459 72.9735C15.4428 72.5338 16.3372 72.9735 17.2986 73.2865C18.4986 73.6294 19.7209 73.9499 20.9506 74.2107Z" fill="#643769"/>
<path d="M95.2653 15.1077C89.6802 18.4417 84.4703 22.3672 79.7256 26.8165C83.6797 35.5339 88.3724 43.8969 93.7523 51.8142C100.61 47.1677 106.353 41.0587 110.566 33.9268C110.882 33.4956 111.042 32.9701 111.021 32.4362C110.925 32.0254 110.722 31.6475 110.432 31.3405C105.786 25.5446 100.717 20.1014 95.2653 15.0556" fill="#7C4F9A"/>
<path d="M94.7959 14.3028C89.1371 17.6699 83.8637 21.6462 79.0699 26.1607C78.9288 26.3081 78.8383 26.4967 78.8115 26.699C78.7848 26.9013 78.823 27.107 78.9208 27.2861C82.8822 35.9997 87.5745 44.3622 92.9476 52.2837C93.0748 52.4943 93.2789 52.647 93.5168 52.7096C93.7547 52.7722 94.0077 52.7398 94.222 52.6191C99.557 49.0091 104.244 44.5239 108.085 39.3526C109.076 38.0185 110.015 36.6397 110.887 35.231C111.677 33.9491 112.437 32.6374 111.468 31.2287C110.428 29.816 109.317 28.4578 108.137 27.1594C106.982 25.8178 105.812 24.4837 104.612 23.1794C101.829 20.1535 98.9324 17.2418 95.9213 14.4444C95.0419 13.632 93.7227 14.9437 94.6021 15.7636C99.4214 20.2299 103.945 25.005 108.144 30.0586C108.659 30.6772 109.173 31.2884 109.635 31.9219C110.276 32.7343 109.903 33.2113 109.411 34.0236C108.629 35.3056 107.794 36.5652 106.907 37.7502C103.173 42.9363 98.5626 47.4309 93.2829 51.0316L94.5574 51.367C89.186 43.4445 84.4937 35.0822 80.5307 26.3693L80.3891 27.5022C85.0645 23.0951 90.2108 19.216 95.735 15.935C95.9485 15.8105 96.1038 15.6062 96.1667 15.3672C96.2296 15.1282 96.1949 14.874 96.0704 14.6605C96.0087 14.5548 95.9269 14.4623 95.8294 14.3882C95.732 14.3142 95.621 14.26 95.5026 14.2289C95.2636 14.166 95.0094 14.2006 94.7959 14.3251V14.3028Z" fill="#511C6C"/>
<path d="M29.4247 116.559C38.7634 111.692 48.2885 106.766 58.6259 105.089C63.7834 104.247 69.0602 104.239 74.2327 103.65C83.4274 102.598 92.3286 99.7629 100.438 95.3029C104.105 93.2831 107.6 90.9429 111.096 88.5952L124.854 79.3533C129.281 76.3721 133.738 73.3909 137.636 69.709C144.88 62.8522 149.919 53.8489 154.838 45.0021C157.901 39.4942 161.054 33.6435 161.009 27.2413C161.009 24.4017 160.018 21.1671 157.506 20.0864C155.695 19.3411 153.653 19.8852 151.797 20.5112C147.596 21.9936 143.504 23.7693 139.551 25.8253C137.502 26.8612 135.482 27.9345 133.462 29.0226C131.8 29.9245 130.161 30.9008 128.476 31.7579C128.223 31.8846 128.051 31.9592 127.954 32.2498C127.813 32.6821 127.783 33.1815 127.686 33.6286C127.485 34.5677 127.246 35.5068 126.941 36.4236C126.588 37.5987 126.17 38.7533 125.689 39.8818C124.289 43.0006 122.624 45.993 120.71 48.8255C118.651 52.1694 116.323 55.34 113.749 58.3058C106.169 66.6831 95.6528 71.3562 85.3228 75.4479C80.1057 77.5199 74.7096 79.5173 69.0975 79.644C65.8845 79.7392 62.6946 79.0726 59.7886 77.6987C58.3415 76.9999 57.0075 76.0879 55.831 74.9933C54.8397 74.0616 53.8634 73.6145 52.6411 74.3449C51.3532 75.2122 50.1593 76.2113 49.0785 77.3261C47.9009 78.4366 46.7755 79.562 45.6873 80.7918C43.4822 83.2341 41.4688 85.843 39.6652 88.5952C37.8341 91.3776 36.2123 94.2924 34.8133 97.3153C33.4137 100.334 32.25 103.456 31.3327 106.654C30.4223 109.804 29.7815 113.025 29.4172 116.283L29.4247 116.559Z" fill="#7C4F9A"/>
<path d="M29.8943 117.364C35.203 114.472 40.6641 111.87 46.2538 109.568C52.0097 107.292 58.0695 105.875 64.2381 105.365C70.4167 104.865 76.5431 104.56 82.61 103.129C88.4448 101.762 94.0858 99.6717 99.4018 96.9054C104.939 94.0285 110.052 90.4137 115.225 86.9481C120.397 83.4824 125.801 80.0167 130.936 76.3423C135.745 72.9916 140.056 68.9768 143.74 64.4174C147.206 59.9084 150.322 55.142 153.064 50.1596C155.911 45.1586 159.026 40.098 160.793 34.5752C162.142 30.3195 163.215 23.6639 159.421 20.2429C157.327 18.3499 154.555 18.6852 152.058 19.4976C149.155 20.4591 146.315 21.5991 143.554 22.9111C140.64 24.2527 137.778 25.7209 134.946 27.2265C133.574 27.9718 132.21 28.7171 130.854 29.4624C130.183 29.8425 129.512 30.2077 128.834 30.5804C128.273 30.7876 127.764 31.1158 127.343 31.5418C127.068 32.0336 126.907 32.5814 126.874 33.1442C126.747 33.8895 126.553 34.6348 126.36 35.3802C125.953 36.8863 125.437 38.3609 124.817 39.7924C123.567 42.5398 122.102 45.1839 120.434 47.7001C117.2 52.7607 113.771 57.6351 109.18 61.5703C104.973 65.0325 100.336 67.936 95.3845 70.2084C90.2695 72.67 85.0105 74.8204 79.6362 76.6479C73.8899 78.5857 67.6516 79.7186 61.786 77.5572C60.4346 77.0629 59.156 76.3885 57.985 75.5523C56.9266 74.807 56.0323 73.6145 54.7578 73.2269C52.2759 72.4816 49.9356 75.3585 48.363 76.8566C39.5373 85.2855 33.2128 95.9896 30.0881 107.787C29.3311 110.666 28.7954 113.599 28.4856 116.559C28.3515 117.752 30.2222 117.744 30.3489 116.559C31.7685 104.578 36.5923 93.2541 44.2489 83.9296C46.0994 81.6929 48.0909 79.5769 50.2114 77.5944C51.1281 76.7224 52.2312 75.4032 53.4684 74.9933C54.7056 74.5834 55.7938 76.2156 56.621 76.8417C61.1823 80.2775 67.0554 81.0676 72.6154 80.2775C78.3095 79.4577 83.7279 77.1547 89.0122 74.9784C93.9558 73.03 98.7381 70.695 103.315 67.9949C107.886 65.278 111.989 61.84 115.463 57.8139C117.344 55.5256 119.087 53.1264 120.68 50.6292C122.275 48.1995 123.848 45.7474 125.197 43.1761C126.563 40.5778 127.614 37.8254 128.327 34.9777C128.487 34.3539 128.614 33.722 128.707 33.0846C128.704 32.993 128.722 32.9019 128.761 32.8189C128.8 32.7359 128.858 32.6635 128.931 32.6076C129.319 32.3311 129.743 32.108 130.19 31.9443C131.495 31.2362 132.777 30.4909 134.081 29.7903C139.47 26.7271 145.083 24.0762 150.873 21.8602C153.22 21.0106 156.403 19.7063 158.393 21.9199C159.98 23.6714 160.167 26.3917 160.033 28.6277C159.682 34.3442 156.82 39.5464 154.07 44.4506C148.644 54.2141 143.069 64.1416 134.372 71.386C129.743 75.2393 124.593 78.4515 119.6 81.8203C114.464 85.2637 109.381 88.8113 104.134 92.0832C94.0631 98.4166 82.5999 102.2 70.7372 103.106C64.6704 103.576 58.6483 103.852 52.7454 105.484C47.1917 107.106 41.8019 109.244 36.6468 111.871C34.0456 113.146 31.4743 114.487 28.9105 115.821C27.8894 116.306 28.8285 117.916 29.8943 117.364Z" fill="#511C6C"/>
<path d="M151.32 25.9296C152.207 25.7954 154.495 25.5122 155.285 25.9296C157.678 27.2488 156.127 32.697 155.479 34.5304C155.099 35.6186 149.285 46.6865 146.915 51.203C147.661 47.8939 155.911 33.4423 151.387 30.0288C149.412 28.5382 145.425 29.4549 143.189 30.3418C142.145 30.7517 135.594 32.7864 134.357 32.9728C135.922 32.1157 149.39 26.2203 151.32 25.9296Z" fill="#9C76B2"/>
<path opacity="0.7" d="M109.62 67.719C108.153 69.0367 106.516 70.1521 104.753 71.0357C97.6578 75.0007 90.5177 78.9881 82.8559 81.701C80.0834 82.6774 77.2587 83.4898 74.4041 84.1978C70.8565 85.0698 67.2119 85.7853 63.5748 85.4276C59.3936 85.0176 54.8845 83.2513 51.2176 85.3083C50.0841 86.0305 49.0643 86.9171 48.1916 87.9392C46.7137 89.4565 45.3204 91.0539 44.0179 92.7241C42.4729 94.794 41.219 97.066 40.2914 99.4766C40.0799 99.8766 39.9517 100.315 39.9145 100.766C39.8774 101.217 39.932 101.671 40.0752 102.1C40.7386 103.442 42.6615 103.367 44.1372 103.084L55.9205 100.848C58.7899 100.296 61.6594 99.7524 64.5661 99.4468C68.2106 99.0592 71.885 99.0592 75.5296 98.7015C89.6084 97.2109 102.867 90.764 115.262 83.922C103.821 92.2099 90.8531 99.3648 76.9009 101.571C69.3286 102.763 61.5178 102.532 54.0647 104.321C51.2049 105.053 48.3903 105.952 45.6352 107.012C40.4181 109.166 36.6915 110.902 31.6011 113.533C32.8325 106.141 35.4389 99.0444 39.2852 92.6123C41.4311 88.9332 43.9458 85.4821 46.7905 82.3122C48.5568 80.3371 50.5692 78.2428 52.3803 76.5659C52.7478 76.2109 53.199 75.9545 53.692 75.8205C54.1443 75.8333 54.5763 76.0109 54.9069 76.3199C55.1528 76.4764 56.4497 77.6913 56.6807 77.8105C58.852 79.2649 61.2882 80.2779 63.8506 80.7917C67.302 81.419 70.8399 81.4013 74.2849 80.7396C77.2638 80.051 80.1983 79.1823 83.0721 78.1384C85.9358 77.1401 88.7445 75.9907 91.4866 74.6951C94.3337 73.4579 97.2777 72.2058 100.035 70.7897C102.657 69.3154 105.202 67.7084 107.66 65.975C108.308 65.5502 108.934 64.9688 109.568 64.5366C110.138 64.1083 110.685 63.6505 111.207 63.1652C111.804 62.6286 111.304 66.0123 110.261 66.9737C110.037 67.242 109.836 67.4954 109.62 67.719Z" fill="#643769"/>
<path opacity="0.7" d="M27.502 32.22C28.2249 31.5731 29.1119 31.1373 30.0658 30.9604C30.9825 30.9373 31.8917 31.1314 32.7191 31.5269L49.2202 37.8695C49.9991 38.109 50.7198 38.5075 51.3369 39.0396C51.7287 39.4701 52.0529 39.9577 52.2984 40.4855C54.9155 45.4944 56.8506 50.8309 58.0521 56.3531C59.1105 61.2423 59.8856 66.7874 63.873 69.8134C66.3176 71.6767 69.597 72.176 72.6527 71.8108C75.6951 71.3098 78.6527 70.3866 81.4399 69.0681C91.4883 64.7985 101.259 59.9021 110.693 54.4079C111.61 55.4066 113.451 56.1668 112.46 57.091C105.879 63.4173 98.161 68.442 89.7129 71.9002C82.0138 75.1647 75.0005 77.7882 67.0629 77.4826C65.1685 77.545 63.2807 77.2283 61.5104 76.551C58.6857 75.6193 57.0982 73.3014 55.4734 72.6754C54.9144 72.4518 54.7803 72.5636 54.5269 71.9748C54.3927 71.6692 54.02 71.0059 53.5952 69.9103C53.2592 68.9904 53.0292 68.0352 52.9095 67.0632C52.3878 62.9118 52.7083 61.3318 51.7841 56.7556C50.0028 48.0504 42.7584 44.9424 35.6482 40.083C34.1568 39.062 32.7931 37.8659 31.5862 36.5204C31.1639 36.1554 30.651 35.9108 30.1015 35.8125C29.552 35.7141 28.9862 35.7656 28.4634 35.9615C27.7628 36.2969 26.0635 38.5179 25.7728 38.9427C23.9136 41.4714 22.2824 44.16 20.8985 46.9771C20.0122 49.374 19.2656 51.8202 18.6626 54.3035C18.6104 54.9147 18.0813 50.577 18.126 50.0553C18.2326 48.7647 18.4369 47.484 18.7371 46.2244C19.3491 43.632 20.3545 41.1487 21.7184 38.8607C23.2208 36.3099 25.1816 34.0585 27.502 32.22Z" fill="#643769"/>
<path d="M7.79608 29.6114C8.02713 28.9407 10.5239 24.9682 12.2679 22.2553C14.5039 18.7448 20.3694 10.9415 23.5668 8.26579C23.2389 8.5341 15.2268 21.4652 14.2579 23.2241C12.3052 26.7793 10.8295 29.6636 9.17491 33.3603C8.70537 34.4038 6.58868 39.5688 6.38745 39.8296C6.5067 37.9589 7.08804 31.6536 7.79608 29.6114Z" fill="#9C76B2"/>
<path d="M79.6735 2.4449C76.0438 4.16656 72.3247 5.79879 69.1274 8.27322C66.5784 10.2557 64.5884 12.8643 62.6283 15.4058C59.9816 18.9568 57.6215 22.7125 55.5702 26.6376C53.6249 30.2449 51.6573 33.8075 50.0325 37.5713C48.2806 41.5234 46.8135 45.5957 45.6427 49.7571C45.5862 49.9924 45.6235 50.2404 45.7466 50.4487C45.8698 50.657 46.0691 50.8091 46.3025 50.8731C46.5359 50.937 46.785 50.9076 46.997 50.7911C47.2091 50.6746 47.3676 50.4802 47.4389 50.249C49.5509 42.9515 52.5074 35.9253 56.2484 29.3133C58.2606 25.3621 60.5391 21.5522 63.068 17.9101C64.814 15.3338 66.8113 12.9371 69.0305 10.7551C72.3471 7.72913 76.5804 5.95531 80.5827 4.04732C81.6709 3.53306 80.7243 1.92319 79.6436 2.43745L79.6735 2.4449Z" fill="#511C6C"/>
<path d="M28.0831 1.09593C26.4136 5.39636 26.3168 10.4048 26.2497 15.063C26.1528 22.1583 29.0669 29.8872 29.5961 36.9676" fill="#7C4F9A"/>
<path d="M27.1815 0.827627C26.1723 3.70746 25.5995 6.72206 25.4822 9.77134C25.2325 12.7648 25.2325 15.7738 25.4822 18.7672C26.1381 24.9011 28.1504 30.8114 28.6423 36.9676C28.7392 38.1527 30.6025 38.1676 30.5056 36.9676C30.0211 30.9157 28.0759 25.1098 27.3827 19.0802C27.1069 16.1464 27.077 13.1946 27.2933 10.2558C27.3865 7.20708 27.9471 4.19073 28.9553 1.31207C29.3802 0.194111 27.584 -0.290331 27.1591 0.820178L27.1815 0.827627Z" fill="#511C6C"/>
<path d="M82.6473 7.41617C85.4646 7.63231 93.4841 9.73407 96.5026 11.6272C101.019 14.4444 105.774 17.2766 111.267 23.3658C104.559 17.6865 98.828 13.6022 93.9015 11.7911C81.8349 7.31928 70.5212 16.6953 70.8715 16.3152C76.9979 9.69682 78.0115 7.05842 82.6473 7.41617Z" fill="#9C76B2"/>
</svg>
